<?xml version="1.0" encoding="UTF-8"?>
<svg id="Layer_2" data-name="Layer 2" xmlns="http://www.w3.org/2000/svg" viewBox="0 0 24.92 58.2">
  <defs>
    <style>
      .cls-1 {
        fill: #b71e25;
      }
    </style>
  </defs>
  <g id="Layer_1-2" data-name="Layer 1">
    <polygon class="cls-1" points="24.46 36.62 23.64 36.52 22.67 36.39 21.36 37.74 21.15 38.97 20.45 39.13 19.99 40.01 19.08 41.39 17.95 42.45 17.33 46.02 15.68 46.99 15.65 46.8 15.59 46.16 15.54 45.58 15.59 44.86 15.7 44.21 15.76 43.42 15.65 42.77 15.42 41.33 15.39 40.91 15.61 40.39 15.61 39.02 15.46 37.55 15.7 32.62 15.7 31.9 16.1 31.11 16.49 30.67 16.55 30.31 16.49 29.74 16.44 28.95 16.27 28.23 16.16 27.43 16.04 26.79 15.93 26.07 15.87 25.42 15.82 24.84 15.54 22.32 15.65 21.67 15.7 20.88 15.59 20.23 15.37 18.79 15.31 18.07 15.2 17.28 15.14 16.42 14.91 14.83 14.86 14.11 14.63 12.67 14.52 11.67 14.46 10.87 14.46 10.15 14.41 9.58 14.35 8.93 14.24 7.49 14.01 5.9 13.84 5.11 13.73 4.39 13.56 3.6 13.56 3.46 13.5 2.74 13.39 2.09 13.22 1.44 13.11 .79 12.99 .22 12.77 0 12.03 .22 11.53 .72 11.24 1.37 11.13 2.02 11.02 2.59 11.02 3.6 10.96 4.32 10.96 5.54 11.08 6.26 11.36 6.7 11.47 7.2 11.3 7.7 10.91 8.35 10.45 9.07 10.17 9.79 10.45 10.58 10.4 11.3 10.4 12.03 10.34 12.75 10.34 13.46 10.28 14.19 10.28 14.91 10.23 15.55 10.17 16.27 10.17 16.99 10.11 17.64 10 19.08 9.95 19.73 9.78 21.89 9.66 22.68 9.61 23.69 9.66 24.41 9.78 25.13 9.89 25.92 9.95 26.71 9.83 27.29 9.83 27.43 9.95 28.23 10 29.02 9.89 32.62 9.87 34.22 9.87 34.74 9.87 35.78 10.19 36.36 10.19 37.6 9.97 38.34 9.97 39.13 10.11 40.9 10.06 41.62 10 42.27 9.83 44.43 9.72 45.22 9.66 46.23 9.72 46.95 9.81 47.54 9.69 47.1 6.93 45.02 6.6 41.38 5.56 40.18 4.76 38.69 4.38 37.76 3.69 37.51 3.58 36.25 2.39 34.74 1.41 34.74 .58 34.74 0 36.34 .58 40.9 .58 44.59 2.47 47.35 3.08 50.57 4.04 51.34 4.91 51.88 5.44 52.47 5.6 52.76 5.87 52.93 7.68 54.92 8.56 55.2 9.51 56.57 11.37 58.2 13.07 58.01 13.62 57.82 14.44 56.92 15.69 56.61 15.92 55.65 18.79 53.11 19.69 52.68 20.72 52.05 21.58 48.92 23.67 46.42 23.97 42.75 24.92 38.29 24.46 36.62"/>
  </g>
</svg>